<?xml version="1.0" encoding="UTF-8" standalone="no"?>
<svg
   xmlns:dc="http://purl.org/dc/elements/1.1/"
   xmlns:cc="http://creativecommons.org/ns#"
   xmlns:rdf="http://www.w3.org/1999/02/22-rdf-syntax-ns#"
   xmlns:svg="http://www.w3.org/2000/svg"
   xmlns="http://www.w3.org/2000/svg"
   xmlns:xlink="http://www.w3.org/1999/xlink"
   xmlns:sodipodi="http://sodipodi.sourceforge.net/DTD/sodipodi-0.dtd"
   xmlns:inkscape="http://www.inkscape.org/namespaces/inkscape"
   width="900"
   height="600"
   viewBox="0 0 30 20"
   version="1.1"
   id="svg17"
   sodipodi:docname="2019-10-01-new-flag-of-prc.svg"
   inkscape:version="0.92.1 r15371"
   inkscape:export-filename="/home/user/dev/perestroika/_site/pics/2019-10-01-new-flag-of-prc.png"
   inkscape:export-xdpi="42.669998"
   inkscape:export-ydpi="42.669998">
  <metadata
     id="metadata21">
    <rdf:RDF>
      <cc:Work
         rdf:about="">
        <dc:format>image/svg+xml</dc:format>
        <dc:type
           rdf:resource="http://purl.org/dc/dcmitype/StillImage" />
        <dc:title />
      </cc:Work>
    </rdf:RDF>
  </metadata>
  <sodipodi:namedview
     pagecolor="#ffffff"
     bordercolor="#666666"
     borderopacity="1"
     objecttolerance="10"
     gridtolerance="10"
     guidetolerance="10"
     inkscape:pageopacity="0"
     inkscape:pageshadow="2"
     inkscape:window-width="1360"
     inkscape:window-height="709"
     id="namedview19"
     showgrid="false"
     inkscape:zoom="0.64"
     inkscape:cx="323.71171"
     inkscape:cy="300"
     inkscape:window-x="0"
     inkscape:window-y="0"
     inkscape:window-maximized="1"
     inkscape:current-layer="svg17" />
  <defs
     id="defs3">
    <path
       id="s"
       d="M0,-1 0.587785,0.809017 -0.951057,-0.309017H0.951057L-0.587785,0.809017z"
       fill="#ffde00" />
  </defs>
  <rect
     width="30"
     height="20"
     fill="#de2910"
     id="rect5" />
  <use
     xlink:href="#s"
     transform="matrix(-0.37080443,-2.9769958,2.9769958,-0.37080443,3.7396964,16.5141)"
     id="use7"
     x="0"
     y="0"
     width="100%"
     height="100%" />
  <use
     xlink:href="#s"
     transform="rotate(23.036243,-36.09669,23.701601)"
     id="use9"
     x="0"
     y="0"
     width="100%"
     height="100%" />
  <use
     xlink:href="#s"
     transform="rotate(45.869898,-20.623554,10.97313)"
     id="use11"
     x="0"
     y="0"
     width="100%"
     height="100%" />
  <use
     xlink:href="#s"
     transform="rotate(69.945396,-9.3731711,14.357104)"
     id="use13"
     x="0"
     y="0"
     width="100%"
     height="100%" />
  <use
     xlink:href="#s"
     transform="rotate(20.659808,-45.096489,35.398054)"
     id="use15"
     x="0"
     y="0"
     width="100%"
     height="100%" />
  <g
     transform="matrix(0.01666667,0,0,0.01666666,1.3782634,1.4895586)"
     id="g14"
     style="fill:#ffde00;fill-opacity:1">
    <g
       style="clip-rule:evenodd;fill:#ffde00;fill-opacity:1;fill-rule:evenodd"
       id="g12">
      <path
         style="fill:#ffde00;fill-opacity:1"
         inkscape:connector-curvature="0"
         d="m 84.664,193.78 c -0.818,14.219 -0.965,29.006 -1.44,44.16 -0.479,15.271 0.631,30.543 -6.96,38.88 -4.31,4.732 -10.915,8.354 -16.56,12.24 -17.344,11.94 -34.971,23.063 -51.6,35.04 4.914,10.046 9.752,20.167 14.88,30 22.192,-14.679 47.136,-31.518 69.6,-46.561 3.405,-2.28 7.231,-4.068 10.32,-6.479 6.089,-4.756 10.094,-12.95 10.32,-23.04 0.387,-17.268 1.02,-35.649 1.68,-53.28 0.101,-2.692 0.724,-6.224 0.24,-7.92 -0.549,-1.925 -5.276,-4.326 -7.44,-6 -7.838,-6.063 -16.021,-12.721 -23.04,-17.76 0.004,0.24 0.004,0.48 0.004,0.72 z"
         id="path2" />
      <path
         inkscape:connector-curvature="0"
         d="m 134.34,4.657 h 6 c 5.133,0.642 9.271,3.207 13.44,6.24 3.848,2.799 7.706,5.883 11.04,8.4 55.914,42.206 112.94,83.162 168.48,124.8 7.869,5.899 15.689,10.022 17.76,21.36 0.984,5.39 0.072,11.764 -0.24,18.48 -0.592,12.724 -1.137,24.371 -1.92,37.2 -0.728,11.935 -0.19,26.099 -4.319,34.8 -4.068,8.57 -10.871,15.56 -20.881,18.24 -5.063,1.355 -11.225,1.547 -17.279,2.159 -18.282,1.851 -35.417,3.213 -53.76,5.04 -10.81,1.077 -25.318,4.494 -34.561,0.24 -4.223,-1.943 -8.378,-5.682 -12.72,-8.88 -58.764,-43.279 -116.12,-86.022 -174.72,-129.6 -4.372,-3.25 -9.186,-6.157 -12,-9.84 -5.377,-7.037 -4.877,-14.728 -4.32,-25.92 1.006,-20.198 2.231,-40.915 3.12,-60.48 0.868,-19.113 12.458,-31.903 30,-33.6 28.786,-2.788 58.25,-5.729 86.88,-8.643 z m 122.16,150.24 c -7.835,0.686 -16.045,0.815 -23.04,2.64 -11.853,3.092 -20.38,12.226 -22.561,24.48 -1.039,5.84 -0.812,13.305 -1.2,19.439 -0.805,12.729 -1.405,27.314 -2.159,39.601 -0.418,6.804 -1.348,13.649 -0.96,19.92 0.665,10.779 7.355,18.498 16.08,20.64 4.601,1.13 10.187,0.218 15.119,-0.24 20.231,-1.877 40.956,-4.079 60.24,-6 8.353,-0.831 16.215,-0.648 24.24,-2.399 8.876,-1.938 15.109,-7.496 19.2,-13.92 4.631,-7.273 4.728,-16.251 5.279,-27.841 0.718,-15.07 1.655,-31.464 2.641,-47.04 0.328,-5.185 1.131,-10.558 0.72,-15.839 -0.954,-12.264 -10.679,-20.945 -23.04,-20.16 -24.51,1.55 -46.57,4.62 -70.56,6.72 z"
         id="path4"
         style="fill:#ffde00;fill-opacity:1" />
      <path
         style="fill:#ffde00;fill-opacity:1"
         inkscape:connector-curvature="0"
         d="m 251.94,192.58 c -4.299,5.146 -8.64,11.884 -8.64,22.8 0,9.836 3.86,16.932 9.6,21.601 2.945,2.396 7.034,4.18 10.8,6.239 7.639,4.179 14.578,7.854 22.08,12 3.733,2.063 7.599,4.708 11.28,5.761 11.724,3.35 22.019,-2.099 28.561,-8.641 6.548,-6.548 11.519,-16.807 10.319,-29.04 -0.66,-6.741 -3.654,-12.667 -8.64,-17.04 -2.787,-2.444 -6.957,-4.39 -10.8,-6.479 -8.026,-4.365 -14.832,-8.025 -22.561,-12.24 -6.408,-3.495 -11.961,-7.51 -21.6,-6.479 -9.35,1 -15.65,5.83 -20.4,11.52 z"
         id="path6" />
      <path
         inkscape:connector-curvature="0"
         d="m 272.34,181.06 c 9.639,-1.031 15.191,2.984 21.6,6.479 7.729,4.215 14.534,7.875 22.561,12.24 3.843,2.09 8.013,4.035 10.8,6.479 4.985,4.373 7.979,10.299 8.64,17.04 1.199,12.233 -3.771,22.492 -10.319,29.04 -6.542,6.542 -16.837,11.99 -28.561,8.641 -3.682,-1.053 -7.547,-3.697 -11.28,-5.761 -7.502,-4.146 -14.441,-7.821 -22.08,-12 -3.766,-2.06 -7.854,-3.844 -10.8,-6.239 -5.739,-4.669 -9.6,-11.765 -9.6,-21.601 0,-10.916 4.341,-17.654 8.64,-22.8 4.75,-5.69 11.05,-10.52 20.4,-11.52 z m 24.96,25.2 c -8.577,5.146 -17.063,16.069 -16.08,30.721 0.874,13.034 9.427,23.438 23.52,23.279 15.926,-0.179 28.846,-14.352 29.761,-31.439 0.469,-8.77 -3.101,-16.293 -7.681,-20.641 -3.845,-3.649 -10.614,-6.349 -17.279,-5.76 -4.7,0.41 -8.84,1.8 -12.24,3.84 z"
         id="path8"
         style="fill:#ffde00;fill-opacity:1" />
      <path
         inkscape:connector-curvature="0"
         d="m 84.664,193.06 c 7.019,5.039 15.202,11.696 23.04,17.76 2.164,1.674 6.891,4.075 7.44,6 0.484,1.696 -0.139,5.228 -0.24,7.92 -0.661,17.631 -1.293,36.013 -1.68,53.28 -0.226,10.09 -4.231,18.284 -10.32,23.04 -3.089,2.411 -6.915,4.199 -10.32,6.479 -22.464,15.043 -47.408,31.882 -69.6,46.561 -5.127,-9.833 -9.966,-19.954 -14.88,-30 16.629,-11.977 34.256,-23.1 51.6,-35.04 5.646,-3.887 12.25,-7.508 16.56,-12.24 7.591,-8.337 6.481,-23.609 6.96,-38.88 0.475,-15.154 0.622,-29.941 1.44,-44.16 0.004,-0.24 0.004,-0.48 0.004,-0.72 z"
         id="path10"
         style="fill:#ffde00;fill-opacity:1" />
    </g>
  </g>
  <path
     style="fill:#ffde00;fill-opacity:1;stroke:#ffde00;stroke-width:0.03333334px;stroke-linecap:butt;stroke-linejoin:miter;stroke-opacity:1"
     d="m 10.239378,12.435176 c -0.283539,0.58094 -0.7633654,0.865138 -1.3715864,0.913252 -0.474173,1.097039 -0.948391,2.194059 -1.422536,3.291111 0.649566,0.279753 1.299104,0.559568 1.948639,0.839389 0.176062,-0.40499 0.352238,-0.80993 0.5283444,-1.214901 2.359133,1.022806 4.718207,2.045727 7.077363,3.068463 0.254756,-0.578385 0.509529,-1.156764 0.764348,-1.735123 -2.362459,-1.026617 -4.724898,-2.053278 -7.087355,-3.079911 0.233174,-0.541962 0.466465,-1.083873 0.699567,-1.625867 -0.368932,-0.158697 -0.737869,-0.317387 -1.106817,-0.47605 l -0.02788,0.01827 z"
     id="path10-5"
     inkscape:connector-curvature="0"
     sodipodi:nodetypes="cccccccccccc" />
</svg>
